<svg xmlns="http://www.w3.org/2000/svg" version="1" baseProfile="tiny" x="0" y="0" width="640" height="640" viewBox="0 0 640 640" overflow="inherit" xml:space="preserve"><rect x="0" y="1" stroke="#000000" stroke-miterlimit="10" width="640" height="400"/><rect x="1" y="401" fill="#880044" stroke="#000000" stroke-miterlimit="10" width="640" height="240"/><path fill="#FFFFFF" d="M438 63c-53 21-106 44-156 72 -37 21-73 46-104 76 -14 14-26 29-37 45 -10 15-18 31-25 48 -13 30-17 64-17 97 0 47 19 91 52 124 38 37 89 54 141 59 55 6 113-5 162-32 12-7 23-15 33-24 10-8 18-18 26-28 15-19 23-44 24-68 2-26-7-52-19-75 -11-21-27-38-47-50 -18-11-39-17-60-18 -22-1-42 5-62 14 -17 7-33 20-46 33 -15 17-26 37-33 58 -5 20 7 41 26 46 20 5 41-7 46-26 1-4 3-8 4-12 -1 3-2 6-4 9 4-8 8-16 13-23 -2 3-4 5-6 8 6-7 12-14 20-20 -3 2-5 4-8 6 8-6 16-11 25-15 -3 1-6 3-9 4 9-4 18-6 27-7 -3 0-7 1-10 1 8-1 16-1 25 0 -3 0-6-1-10-1 7 1 14 3 21 6 -3-1-6-2-9-4 6 3 12 6 18 11 -2-2-5-4-8-6 6 5 12 10 17 17 -2-3-4-5-6-8 6 8 11 17 15 26 -1-3-3-6-4-9 4 10 7 20 9 30 0-3-1-7-1-10 1 8 1 15 0 23 0-3 1-6 1-10 -1 7-3 14-6 21 1-3 3-6 4-9 -3 8-8 16-13 23 2-2 4-5 6-8 -7 9-15 17-24 24 3-2 5-4 8-6 -13 10-27 18-42 24 3-1 6-3 9-4 -20 8-40 13-62 16 3 0 7-1 10-1 -23 3-47 3-70 0 3 0 6 1 10 1 -18-3-36-7-54-14 3 1 6 3 9 4 -13-6-26-13-38-22 3 2 5 4 8 6 -10-7-18-16-26-26 2 3 4 5 6 8 -7-9-13-20-18-30 1 3 3 6 4 9 -4-11-8-22-9-34 0 3 1 7 1 10 -2-18-1-36 1-54 0 3-1 6-1 10 3-18 7-35 14-52 -1 3-2 6-4 9 7-17 17-33 28-47 -2 3-4 5-6 8 16-21 35-39 56-55 -3 2-5 4-8 6 54-42 116-71 179-98 -3 1-6 3-9 4 11-4 22-9 32-13 10-4 17-8 23-17 5-9 6-19 4-28 -3-10-9-18-17-23C459 62 447 59 438 63L438 63z"/></svg>